<?xml version="1.0" encoding="UTF-8"?><svg id="Layer_1" xmlns="http://www.w3.org/2000/svg" viewBox="0 0 3054 1500"><defs><style>.cls-1{fill:none;}.cls-2{fill:#001e45;}.cls-3{fill:#0cc2ed;}.cls-4{fill:#fff;}</style></defs><rect class="cls-1" width="3054" height="1500"/><path class="cls-4" d="M248.43,876.63c-6.06,1.01-11.58-3.62-11.64-9.77-.25-23.45-1.66-48.22-7.1-68.02-6.36-22.02-16.43-37.39-32.02-36.99-25.69,1.75-33.99,34.8-34.07,83.46-.04,28.27,9.99,57.16,24.58,87.62,14.59,30.48,33.74,61.41,52.88,94.11,22.77,39.05,45.52,78.54,62.78,117.05,17.25,38.54,29,78.27,28.85,121.72-.17,53.25-7.66,104.19-28.77,144.99-21.11,40.77-54.91,71.41-108.59,82.41-62.76,12.95-98.09-8.77-118.06-51.04-19.15-40.46-24.12-98.26-24.49-159.38-.03-4.51,2.96-8.5,7.3-9.72,25.54-7.17,51.1-14.18,76.68-21.02,6.32-1.69,12.53,3.06,12.58,9.59.23,30.69,1.67,60.34,8.03,82.09,6.33,26.1,17.23,42.15,38.18,38.42,29.15-5.22,40.19-44.8,40.31-96.97.06-26.65-10.81-56.16-25.35-86.67-8.19-14.57-16.37-30.34-25.47-46.1-19.11-31.41-40.06-67.51-61.95-107.61-21.88-40.09-38.32-82.53-48.37-126.94-5.48-21.59-8.22-44.62-8.22-67.79,0-46.34,8.25-96.59,29.39-134.86,21.12-37.19,53.31-63.34,100.16-64.39,59.71-1.01,94.53,28.8,113.67,71.02,17.92,40.6,23.73,89.54,24.27,132.17.06,4.98-3.51,9.25-8.42,10.03-25.72,4.11-51.43,8.3-77.14,12.59Z"/><path class="cls-4" d="M616.54,1272.2c-.08,15.87-2.67,33.89-7.77,54.13-2.56,10.59-6.78,20.46-11,31.31,6.28,8.64,14.92,15.61,27.92,18.49,4.59,1.02,7.86,5.1,7.83,9.8-.11,22.71-.22,45.42-.33,68.13-.03,5.18-4.01,9.49-9.17,9.92-44.95,3.8-68.52-15.66-83.26-41.07-12.54,6.58-27.56,12.67-45.06,15.41-30,4.7-53.27-.09-69.85-12.9-16.58-11.83-27.33-28.59-34.74-46.94-9.06-21.02-13.96-46.72-14.68-75.98.52-141.33,1.05-282.66,1.57-423.99.94-28.44,6.04-55.1,15.31-77.84,7.59-19.76,18.52-39.53,35.29-54.39,16.76-14.88,40.2-24.82,70.29-25.23,30.08-.41,52.61,8.79,69.25,22.63,16.65,13.85,28.26,32.35,35.69,50.88,9.08,21.3,13.98,46.33,14.68,73.37-.65,134.76-1.31,269.52-1.96,404.28ZM528.28,871.61c.09-18.99-3.2-32.14-11.49-43.27-4.15-4.61-10.82-7.25-18.34-7-15.87.52-23.44,14.22-26.84,26.84-2.55,7.78-3.41,16.47-3.45,26.08-.59,138.69-1.19,277.37-1.78,416.06-.08,20.18,4.03,33.08,12.31,42.47,4.14,4.22,9.97,6.28,17.47,5.26,15.83-2.17,23.39-14.57,26.8-29.25,2.54-6.97,3.41-15.62,3.46-26.06.63-137.04,1.25-274.09,1.88-411.13Z"/><path class="cls-4" d="M911.73,727.25c5.55,0,10.04,4.51,10.01,10.05-.77,170.06-1.54,336.68-2.31,506.88-.97,26.81-6.1,51.26-15.41,72.59-7.62,18.51-19.44,36.53-36.26,51.61-16.82,15.97-39.5,26.39-69.64,29.71-30.14,3.32-53.54-2.09-70.19-14.8-16.67-11.78-27.45-27.98-34.88-45.55-9.09-20.14-13.98-44.54-14.68-72.17.87-176.49,1.74-351.8,2.61-528.25.03-5.5,4.5-9.96,10-9.96h70.28c5.54,0,10.03,4.51,10,10.06-.85,173.79-1.71,345.43-2.56,519.3-.09,19.12,4.03,31.47,12.35,40.65,4.16,4.14,10.01,6.29,17.54,5.56,15.91-1.53,23.49-13.06,26.91-26.9,2.54-6.54,3.42-14.73,3.47-24.66.83-172.34,1.66-341.83,2.49-514.07.03-5.5,4.49-9.95,9.99-9.96l70.3-.1Z"/><path class="cls-4" d="M961.72,1362.76c30.96-212.65,61.83-418.56,92.58-626.98.72-4.91,4.93-8.54,9.89-8.54h93.08c4.98,0,9.2,3.67,9.9,8.6,29.35,206.2,58.83,405.99,88.48,609.91.85,5.87-3.56,11.18-9.48,11.43-22.64.94-45.28,2-67.91,3.17-5.23.27-9.78-3.53-10.44-8.72-5.08-40.12-10.15-80.28-15.22-120.48-29.1,1.32-58.19,2.8-87.28,4.44-5.41,41.49-10.82,83.05-16.24,124.68-.61,4.71-4.45,8.34-9.19,8.68-22.49,1.63-44.98,3.37-67.45,5.23-6.41.53-11.65-5.04-10.72-11.41ZM1115.05,930.78c-.82-5.51-1.64-11.02-2.45-16.54-1.67.04-3.35.08-5.03.12-.86,5.55-1.71,11.11-2.57,16.67-8.89,67.82-17.8,135.8-26.71,203.96,20.68-.94,41.37-1.81,62.06-2.62-8.44-67.06-16.88-134.25-25.29-201.59Z"/><path class="cls-4" d="M1460.15,1343.31c-15.16-85.76-30.28-171.53-45.36-257.36-8.11.08-16.22.18-24.33.28-.11,85.57-.21,171.14-.32,256.71,0,5.43-4.35,9.86-9.78,9.98-23.58.51-47.15,1.15-70.73,1.91-5.65.18-10.33-4.36-10.32-10.01.42-204.37.84-402.99,1.26-607.37.01-5.5,4.47-9.97,9.97-9.99l80.38-.22c107.87-.19,153.88,56.16,153.92,175.41.01,62.64-15.91,119.2-50.31,143.31,18.52,97.8,37.08,195.61,55.7,293.52,1.17,6.17-3.56,11.87-9.84,11.86-23.43-.05-46.87.03-70.3.23-4.88.04-9.08-3.44-9.93-8.25ZM1390.56,1000.27c12.58-.13,29.34-2,42.78-14.11,13.43-12.11,24.34-35.33,24.36-79.97.02-44.63-10.84-68.63-24.23-80.61-13.38-11.98-30.12-12.77-42.68-12.71-.08,62.46-.16,124.93-.24,187.39Z"/><path class="cls-4" d="M1612.51,727.36h186.6c5.51,0,9.99,4.47,10,9.98.06,24.29.13,45.65.19,69.93.01,5.57-4.52,10.08-10.09,10.03-35.41-.34-70.82-.61-106.23-.82.08,55.35.17,110.71.25,166.06,24.67.29,49.34.64,74.01,1.06,5.45.09,9.82,4.53,9.83,9.98.06,27.28.12,54.57.18,81.85.01,5.62-4.6,10.14-10.22,10.01-24.55-.54-49.1-1-73.66-1.38.09,57.94.18,115.87.27,173.81,35.73.76,71.45,1.78,107.16,3.03,5.37.19,9.64,4.6,9.65,9.98.06,25.32.13,50.65.19,75.97.01,5.69-4.72,10.24-10.4,10.01-62.46-2.53-124.95-4.2-187.44-4.99-5.47-.07-9.87-4.52-9.87-9.99-.14-203.49-.29-401.02-.43-604.5,0-5.53,4.47-10.01,10-10.01Z"/><path class="cls-4" d="M2040.39,1060.83c-25.78-1.13-51.57-2.17-77.36-3.12.36,99.04.72,198.08,1.08,297.11.02,5.79-4.86,10.38-10.63,10.01-26.52-1.68-53.05-3.21-79.59-4.57-5.3-.27-9.47-4.64-9.48-9.95-.67-227.27-1.34-454.54-2.01-681.81-.02-5.54,4.47-10.03,10.01-10.03,26.4.01,52.81.03,79.21.05,5.51,0,9.97,4.46,9.99,9.96.34,94.15.69,188.31,1.03,282.46,25.77.71,51.54,1.47,77.3,2.3-.39-94.87-.78-189.74-1.17-284.61-.02-5.54,4.47-10.05,10.01-10.04,26.41.02,52.81.05,79.21.07,5.5,0,9.97,4.45,9.99,9.96,1.06,233.25,2.12,466.51,3.18,699.76.03,5.89-5.02,10.53-10.9,10-26.47-2.38-52.95-4.6-79.44-6.66-5.19-.4-9.2-4.72-9.22-9.92-.41-100.32-.82-200.64-1.23-300.96Z"/><path class="cls-4" d="M2218.47,727.36h186.47c5.5,0,9.97,4.45,10,9.96.14,27.54.27,54.72.4,82.26.03,5.66-4.65,10.22-10.31,10.04-35.27-1.1-70.55-2.13-105.83-3.09.29,58.71.58,117.43.87,176.14,24.76,1.35,49.5,2.77,74.24,4.26,5.26.32,9.38,4.67,9.4,9.94.15,29.64.29,59.29.44,88.93.03,5.85-4.95,10.47-10.78,10.01-24.25-1.9-48.51-3.71-72.78-5.45.3,61.45.6,122.9.91,184.35,35.82,3.58,71.61,7.42,107.38,11.5,5.03.57,8.84,4.83,8.87,9.9.14,27.64.27,55.29.4,82.93.03,6.06-5.3,10.74-11.3,9.95-62.03-8.17-124.16-15.47-186.36-21.91-5.08-.53-8.94-4.79-8.97-9.9-1.02-214.22-2.05-425.57-3.07-639.78-.03-5.54,4.46-10.05,10-10.05Z"/><path class="cls-4" d="M2628.07,1434.92c-15.57-100.28-31.17-199.58-46.8-297.95-8.06-.79-16.12-1.58-24.19-2.35.42,94.8.84,189.59,1.26,284.39.03,6.14-5.44,10.85-11.51,9.92-23.31-3.57-46.63-7.02-69.96-10.34-4.91-.7-8.56-4.88-8.59-9.84-1.07-223.78-2.14-447.56-3.2-671.34-.03-5.54,4.46-10.05,10-10.05h80.21c107.8,1.16,153.99,75.41,154.44,213,.25,72.08-15.36,135.88-49.43,159.81,18.86,113.1,37.67,227.57,56.43,343.49,1.1,6.8-4.84,12.65-11.62,11.44-22.92-4.07-45.85-8.02-68.8-11.85-4.25-.71-7.57-4.07-8.23-8.32ZM2556.66,1039.11c12.51.96,29.2.38,42.49-12.07,13.3-12.44,24.01-37.78,23.83-88.16-.21-50.38-11.16-77.99-24.58-91.99-13.43-14.02-30.12-15.55-42.65-16,.31,69.41.62,138.81.92,208.22Z"/><path class="cls-4" d="M3001.26,1354.87c-.82,31.59-5.78,59.21-14.87,81.6-7.43,19.57-18.98,37.13-35.5,49.28-16.5,13.22-38.8,17.69-68.59,11.49-29.78-6.19-53-19.99-69.62-39.29-16.61-18.3-27.45-39.3-34.98-60.61-9.2-24.61-14.26-52.33-15.18-82.39-.43-144.03-.86-291.76-1.29-435.79.75-28.89,5.67-55.6,14.79-78.31,7.46-19.76,18.25-39.51,34.91-54.27,16.66-14.74,40.03-24.52,70.09-23.98,30.07.54,52.62,11.3,69.32,27.41,16.71,16.09,28.4,37.51,35.9,58.9,9.18,24.61,14.17,53.46,15.01,84.2v461.75ZM2911.3,887.6c-.03-20.68-3.38-35.36-11.74-48.12-4.18-5.35-10.86-8.74-18.36-9.07-15.85-.69-23.32,13.28-26.64,26.36-2.48,8.03-3.3,17.16-3.28,27.35.29,147.1.6,297.89.89,444.98.04,21.4,4.22,36.36,12.53,49.06,4.16,5.84,9.95,9.95,17.42,11.3,15.74,2.86,23.18-8.13,26.46-23.06,2.48-6.79,3.29-15.96,3.28-27.33-.19-149.26-.38-302.21-.57-451.48Z"/><path class="cls-4" d="M2979.08,759.89v-.2c0-20.19,16.39-37.09,37.19-37.09s36.99,16.7,36.99,36.89v.2c0,20.19-16.39,37.09-37.19,37.09s-36.99-16.7-36.99-36.89ZM3046.42,759.68v-.19c0-16.73-12.95-30.25-30.15-30.25s-30.34,13.71-30.34,30.44v.19c0,16.73,12.95,30.25,30.15,30.25s30.34-13.71,30.34-30.44ZM3002.08,740.49h16.16c4.92,0,8.7,1.42,11.25,3.97,1.99,1.99,3.02,4.73,3.02,7.94v.19c0,5.86-3.21,9.55-7.85,11.25l8.89,13.04h-9.36l-7.75-11.72h-6.33v11.72h-8.03v-36.39ZM3018.15,758.26c4.06,0,6.24-2.17,6.24-5.2v-.19c0-3.5-2.46-5.29-6.43-5.29h-7.85v10.68h8.03Z"/><path class="cls-3" d="M1508.48,39.2c5.71-3.3,12.11-4.95,18.52-4.95s12.81,1.65,18.52,4.95l172.35,99.5c-19.06,29.62-44.85,54.57-75.21,72.6-34.87,20.72-74.87,31.67-115.66,31.67s-80.79-10.95-115.66-31.66c-30.36-18.03-56.16-42.98-75.21-72.6l172.35-99.51Z"/><path class="cls-3" d="M1545.52,662.83c-11.42,6.59-25.61,6.59-37.04,0l-171.43-98.98c19.11-29.23,44.83-53.83,74.98-71.59,34.7-20.45,74.46-31.26,114.98-31.26s80.28,10.81,114.98,31.26c30.15,17.77,55.86,42.37,74.98,71.59l-171.43,98.98Z"/><path class="cls-2" d="M1806.3,490.89c0,13.19-7.1,25.48-18.52,32.08l-49.41,28.53c-21.26-32.9-50.05-60.57-83.86-80.5-38.5-22.69-82.59-34.68-127.51-34.68s-89.02,11.99-127.51,34.68c-33.81,19.93-62.6,47.6-83.86,80.5l-49.41-28.53c-11.42-6.6-18.52-18.89-18.52-32.08V211.15c0-13.19,7.1-25.48,18.52-32.08l48.49-28c21.19,33.27,50.02,61.28,84.01,81.47,38.68,22.98,83.04,35.13,128.27,35.13s89.59-12.15,128.28-35.13c33.99-20.19,62.82-48.2,84.01-81.47l48.5,28c11.42,6.6,18.52,18.89,18.52,32.08v279.74Z"/><path class="cls-1" d="M1641.98,492.26c-34.7-20.45-74.46-31.26-114.98-31.26s-80.28,10.81-114.98,31.26c-30.15,17.77-55.86,42.37-74.98,71.59l171.43,98.98c11.42,6.59,25.62,6.59,37.04,0l171.43-98.98c-19.11-29.23-44.83-53.83-74.98-71.59ZM1634.75,538.31l-100.37,57.95c-4.39,2.53-9.79,2.53-14.18,0l-48.53-28.02c-6.06-3.5-4.52-12.65,2.35-13.97l155.51-29.93c8.37-1.61,12.59,9.71,5.21,13.97Z"/><path class="cls-1" d="M1411.34,211.32c34.87,20.72,74.86,31.66,115.66,31.66s80.79-10.95,115.66-31.67c30.35-18.04,56.15-42.98,75.21-72.6l-172.35-99.5c-5.71-3.3-12.12-4.95-18.52-4.95s-12.81,1.65-18.52,4.95l-172.35,99.51c19.06,29.62,44.86,54.57,75.21,72.6Z"/><path class="cls-1" d="M1787.78,179.07l-48.5-28c-21.18,33.27-50.02,61.28-84.01,81.47-38.68,22.98-83.04,35.13-128.28,35.13s-89.58-12.15-128.27-35.13c-33.99-20.19-62.83-48.2-84.01-81.47l-48.49,28c-11.42,6.6-18.52,18.89-18.52,32.08v279.74c0,13.19,7.1,25.48,18.52,32.08l49.41,28.53c21.26-32.9,50.05-60.57,83.86-80.5,38.5-22.69,82.59-34.68,127.51-34.68s89.02,11.99,127.51,34.68c33.81,19.93,62.6,47.6,83.86,80.5l49.41-28.53c11.42-6.6,18.52-18.89,18.52-32.08V211.15c0-13.19-7.1-25.48-18.52-32.08ZM1479.2,343.25l-48.53,28.02c-4.39,2.53-9.79,2.53-14.18,0l-100.37-57.95c-7.38-4.26-3.16-15.59,5.21-13.97l155.51,29.93c6.87,1.32,8.41,10.47,2.35,13.97ZM1737.88,313.32l-100.37,57.95c-4.39,2.53-9.79,2.53-14.18,0l-48.53-28.02c-6.06-3.5-4.52-12.65,2.35-13.97l155.51-29.93c8.37-1.61,12.59,9.71,5.21,13.97Z"/><path class="cls-4" d="M1732.67,299.35l-155.51,29.93c-6.88,1.32-8.42,10.47-2.35,13.97l48.53,28.02c4.39,2.53,9.79,2.53,14.18,0l100.37-57.95c7.38-4.26,3.16-15.59-5.21-13.97Z"/><path class="cls-4" d="M1476.85,329.27l-155.51-29.93c-8.37-1.61-12.59,9.71-5.21,13.97l100.37,57.95c4.39,2.53,9.79,2.53,14.18,0l48.53-28.02c6.06-3.5,4.52-12.65-2.35-13.97Z"/><path class="cls-4" d="M1629.54,524.33l-155.51,29.93c-6.87,1.32-8.41,10.47-2.35,13.97l48.53,28.02c4.39,2.53,9.79,2.53,14.18,0l100.37-57.95c7.38-4.26,3.16-15.59-5.21-13.97Z"/><path class="cls-4" d="M1800.13,157.69l-242.26-139.87c-19.04-10.99-42.69-10.99-61.73,0l-242.26,139.87c-19.04,10.99-30.87,31.48-30.87,53.46v279.74c0,21.98,11.83,42.47,30.87,53.46l242.26,139.87c9.52,5.5,20.19,8.24,30.87,8.24s21.35-2.75,30.87-8.24l242.26-139.87c19.04-10.99,30.86-31.48,30.86-53.46V211.15c0-21.98-11.83-42.47-30.87-53.46ZM1508.48,39.2c5.71-3.3,12.11-4.95,18.52-4.95s12.81,1.65,18.52,4.95l172.35,99.5c-19.06,29.62-44.85,54.57-75.21,72.6-34.87,20.72-74.87,31.67-115.66,31.67s-80.79-10.95-115.66-31.66c-30.36-18.03-56.16-42.98-75.21-72.6l172.35-99.51ZM1545.52,662.83c-11.42,6.59-25.61,6.59-37.04,0l-171.43-98.98c19.11-29.23,44.83-53.83,74.98-71.59,34.7-20.45,74.46-31.26,114.98-31.26s80.28,10.81,114.98,31.26c30.15,17.77,55.86,42.37,74.98,71.59l-171.43,98.98ZM1806.3,490.89c0,13.19-7.1,25.48-18.52,32.08l-49.41,28.53c-21.26-32.9-50.05-60.57-83.86-80.5-38.5-22.69-82.59-34.68-127.51-34.68s-89.02,11.99-127.51,34.68c-33.81,19.93-62.6,47.6-83.86,80.5l-49.41-28.53c-11.42-6.6-18.52-18.89-18.52-32.08V211.15c0-13.19,7.1-25.48,18.52-32.08l48.49-28c21.19,33.27,50.02,61.28,84.01,81.47,38.68,22.98,83.04,35.13,128.27,35.13s89.59-12.15,128.28-35.13c33.99-20.19,62.82-48.2,84.01-81.47l48.5,28c11.42,6.6,18.52,18.89,18.52,32.08v279.74Z"/></svg>